<svg width="38" height="24" viewBox="0 0 38 24" fill="none" xmlns="http://www.w3.org/2000/svg">
<g clip-path="url(#clip0_517_1263)">
<path opacity="0.07" d="M35 0H3C1.3 0 0 1.3 0 3V21C0 22.7 1.4 24 3 24H35C36.7 24 38 22.7 38 21V3C38 1.3 36.6 0 35 0Z" fill="black"/>
<path d="M35 1C36.1 1 37 1.9 37 3V21C37 22.1 36.1 23 35 23H3C1.9 23 1 22.1 1 21V3C1 1.9 1.9 1 3 1H35Z" fill="white"/>
<path d="M9.7 12.2H11.78V10.1H12.49V12.2H14.6V12.88H12.49V15H11.78V12.88H9.7V12.2ZM15.6956 14.28H17.4756V9.13C17.0556 9.46333 16.4623 9.63 15.6956 9.63V8.95C16.1023 8.93 16.4823 8.84333 16.8356 8.69C17.189 8.53667 17.4423 8.30333 17.5956 7.99H18.2456V14.28H19.9356V15H15.6956V14.28ZM24.6691 13.61C24.9757 13.0767 25.1291 12.37 25.1291 11.49C25.1291 10.61 24.9757 9.90667 24.6691 9.38C24.3691 8.85333 23.9391 8.59 23.3791 8.59C22.8191 8.59 22.3857 8.85667 22.0791 9.39C21.7724 9.91667 21.6191 10.6167 21.6191 11.49C21.6191 12.3633 21.7724 13.0667 22.0791 13.6C22.3857 14.1333 22.8191 14.4 23.3791 14.4C23.9391 14.4 24.3691 14.1367 24.6691 13.61ZM21.0091 12.83C20.9091 12.41 20.8591 11.9633 20.8591 11.49C20.8591 11.0167 20.9091 10.57 21.0091 10.15C21.1091 9.73 21.2557 9.35 21.4491 9.01C21.6491 8.66333 21.9124 8.39 22.2391 8.19C22.5724 7.98333 22.9524 7.88 23.3791 7.88C23.8057 7.88 24.1824 7.98333 24.5091 8.19C24.8424 8.39 25.1057 8.66333 25.2991 9.01C25.4991 9.35 25.6491 9.73 25.7491 10.15C25.8491 10.57 25.8991 11.0167 25.8991 11.49C25.8991 11.9633 25.8491 12.41 25.7491 12.83C25.6491 13.25 25.4991 13.6333 25.2991 13.98C25.1057 14.3267 24.8424 14.6033 24.5091 14.81C24.1824 15.01 23.8057 15.11 23.3791 15.11C22.9524 15.11 22.5724 15.01 22.2391 14.81C21.9124 14.6033 21.6491 14.3267 21.4491 13.98C21.2557 13.6333 21.1091 13.25 21.0091 12.83Z" fill="#3A0E7B"/>
</g>
<defs>
<clipPath id="clip0_517_1263">
<rect width="38" height="24" fill="white"/>
</clipPath>
</defs>
</svg>
